<?xml version="1.0" standalone="no"?><!DOCTYPE svg PUBLIC "-//W3C//DTD SVG 1.1//EN" "http://www.w3.org/Graphics/SVG/1.1/DTD/svg11.dtd"><svg class="icon" width="200px" height="200.00px" viewBox="0 0 1024 1024" version="1.1" xmlns="http://www.w3.org/2000/svg"><path fill="#333333" d="M516.50664 210.581066c-40.541345 0-73.545016-32.987299-73.545016-73.545016s33.003672-73.553203 73.545016-73.553203c40.557718 0 73.560366 32.995485 73.560366 73.553203S557.064358 210.581066 516.50664 210.581066zM516.50664 96.567359c-22.305005 0-40.444131 18.155499-40.444131 40.46869 0 22.305005 18.139126 40.460504 40.444131 40.460504 22.321378 0 40.460504-18.155499 40.460504-40.460504C556.967144 114.722858 538.828019 96.567359 516.50664 96.567359zM838.145082 857.391425 187.266058 857.391425c-13.9405 0-56.361659 0-68.892043-29.137621-14.734586-34.260292 23.487947-78.715783 67.433832-125.07667 4.538363-4.78191 8.607028-9.077749 11.914354-12.724813 5.949502-6.565533 10.649548-11.322883 14.378475-15.083533 8.688893-8.786107 8.688893-8.786107 8.639774-29.915333l-0.016373-175.448918c0-132.500756 89.656973-248.669546 218.024595-282.507212 57.772798-15.245216 120.002095-12.06785 175.943175 8.931416 113.648386 42.720987 190.013635 152.666028 190.013635 273.575796l-0.016373 175.448918c-0.049119 21.129226-0.049119 21.129226 8.639774 29.915333 3.727904 3.76065 8.428973 8.518001 14.378475 15.083533 3.307326 3.647063 7.375991 7.942903 11.914354 12.716626 43.944861 46.369074 82.168418 90.816378 67.433832 125.07667C894.524137 857.391425 852.086605 857.391425 838.145082 857.391425zM512.633427 211.034391c-22.143323 0-44.155662 2.844791-65.455781 8.461719-113.842815 30.004361-193.352683 133.019573-193.352683 250.509451l0 175.376263c0.064468 30.839379-0.599657 35.459606-18.203594 53.257971-3.469008 3.501754-7.845689 7.92653-13.388938 14.037714-3.436262 3.801583-7.684006 8.275477-12.400425 13.260002-16.923438 17.847483-68.405973 72.166623-61.062727 89.243557 1.459235 3.388167 11.20111 9.125845 38.498826 9.125845l650.879024 0c27.297716 0 37.055964-5.738701 38.498826-9.125845 7.359618-17.08512-44.12394-71.397097-61.046355-89.243557-4.717442-4.984524-8.964162-9.458419-12.400425-13.260002-5.544273-6.111185-9.920954-10.536984-13.389962-14.037714-17.603937-17.798365-18.269086-22.418592-18.203594-53.257971L771.605619 470.00556c0-107.204627-67.725474-204.700125-168.551834-242.59827C574.133106 216.537731 543.707143 211.034391 512.633427 211.034391zM512.714268 958.614827c-67.75822 0-126.551254-48.168046-139.811256-114.5315l-3.955078-19.784602 287.532669 0-3.955078 19.784602C639.265522 910.446781 580.471464 958.614827 512.714268 958.614827zM411.304623 857.383238c16.518209 40.46869 56.394405 68.147076 101.409644 68.147076 45.01524 0 84.891436-27.678386 101.409644-68.147076L411.304623 857.383238z" /></svg>