<?xml version="1.0" standalone="no"?><!DOCTYPE svg PUBLIC "-//W3C//DTD SVG 1.1//EN" "http://www.w3.org/Graphics/SVG/1.1/DTD/svg11.dtd"><svg class="icon" width="200px" height="200.00px" viewBox="0 0 1024 1024" version="1.1" xmlns="http://www.w3.org/2000/svg"><path fill="#333333" d="M885.649481 263.805675 605.413878 263.805675c-17.224179 0-31.139992-13.94987-31.139992-31.139992 0-17.184041 13.915813-31.133911 31.139992-31.133911L885.649481 201.531773c17.218097 0 31.139992 13.94987 31.139992 31.133911C916.789473 249.855805 902.867579 263.805675 885.649481 263.805675L885.649481 263.805675zM885.649481 419.493473 605.413878 419.493473c-17.224179 0-31.139992-13.94987-31.139992-31.139992 0-17.184041 13.915813-31.133911 31.139992-31.133911L885.649481 357.21957c17.218097 0 31.139992 13.94987 31.139992 31.133911C916.789473 405.543603 902.867579 419.493473 885.649481 419.493473L885.649481 419.493473zM885.649481 668.595166 605.413878 668.595166c-17.224179 0-31.139992-13.921895-31.139992-31.139992 0-17.218097 13.915813-31.133911 31.139992-31.133911L885.649481 606.321263c17.218097 0 31.139992 13.915813 31.139992 31.133911C916.789473 654.673271 902.867579 668.595166 885.649481 668.595166L885.649481 668.595166zM885.649481 824.282963 605.413878 824.282963c-17.224179 0-31.139992-13.921895-31.139992-31.139992 0-17.218097 13.915813-31.133911 31.139992-31.133911L885.649481 762.009061c17.218097 0 31.139992 13.915813 31.139992 31.133911C916.789473 810.361069 902.867579 824.282963 885.649481 824.282963L885.649481 824.282963zM387.446096 481.767376 200.624388 481.767376C149.120918 481.767376 107.210493 439.85695 107.210493 388.353481L107.210493 201.531773c0-51.50347 41.910425-93.413895 93.413895-93.413895l186.821708 0c51.50347 0 93.413895 41.910425 93.413895 93.413895l0 186.821708C480.859991 439.85695 438.949565 481.767376 387.446096 481.767376L387.446096 481.767376zM200.624388 170.39178c-17.157282 0-31.139992 13.98271-31.139992 31.139992l0 186.821708c0 17.157282 13.98271 31.139992 31.139992 31.139992l186.821708 0c17.157282 0 31.139992-13.98271 31.139992-31.139992L418.586088 201.531773c0-17.157282-13.98271-31.139992-31.139992-31.139992L200.624388 170.39178 200.624388 170.39178zM387.446096 917.696858 200.624388 917.696858C149.120918 917.696858 107.210493 875.781568 107.210493 824.282963L107.210493 637.455173c0-51.498604 41.910425-93.413895 93.413895-93.413895l186.821708 0c51.50347 0 93.413895 41.915291 93.413895 93.413895l0 186.82779C480.859991 875.781568 438.949565 917.696858 387.446096 917.696858L387.446096 917.696858zM200.624388 606.321263c-17.157282 0-31.139992 13.948654-31.139992 31.133911l0 186.82779c0 17.185257 13.98271 31.133911 31.139992 31.133911l186.821708 0c17.157282 0 31.139992-13.948654 31.139992-31.133911L418.586088 637.455173c0-17.185257-13.98271-31.133911-31.139992-31.133911L200.624388 606.321263 200.624388 606.321263zM200.624388 606.321263" /></svg>