<?xml version="1.0" standalone="no"?><!DOCTYPE svg PUBLIC "-//W3C//DTD SVG 1.1//EN" "http://www.w3.org/Graphics/SVG/1.1/DTD/svg11.dtd"><svg class="icon" width="200px" height="200.00px" viewBox="0 0 1024 1024" version="1.1" xmlns="http://www.w3.org/2000/svg"><path fill="#333333" d="M72.824471 591.540706C29.786353 390.234353 151.913412 192.542118 345.569882 149.925647c193.656471-42.586353 385.536 86.016 428.544 287.322353 43.068235 201.306353-78.998588 399.028706-272.685176 441.645176C307.742118 921.449412 115.892706 792.816941 72.824471 591.540706L72.824471 591.540706zM753.302588 790.347294l227.388235 152.395294 41.923765-67.915294-226.484706-151.853176c45.357176-88.214588 61.650824-193.264941 39.002353-299.128471-50.537412-236.272941-275.757176-387.312941-503.115294-337.287529C104.658824 136.553412-38.671059 368.609882 11.866353 604.912941c50.537412 236.333176 275.757176 387.343059 503.115294 337.317647C612.954353 920.696471 695.326118 865.28 753.302588 790.347294L753.302588 790.347294z" /></svg>