<?xml version="1.0" standalone="no"?><!DOCTYPE svg PUBLIC "-//W3C//DTD SVG 1.1//EN" "http://www.w3.org/Graphics/SVG/1.1/DTD/svg11.dtd"><svg class="icon" width="200px" height="169.12px" viewBox="0 0 1211 1024" version="1.1" xmlns="http://www.w3.org/2000/svg"><path fill="#333333" d="M256 873.091c-61.369 0-116.364-61.316-116.364-128l0-488.727c0-61.064 49.334-104.727 116.364-104.727l279.273 0c30.851 0 46.545 12.045 46.545 34.909l0 779.636 46.545 0 0-779.636c0-51.662-38.82-81.455-93.091-81.455l-279.273 0c-91.557 0-162.909 63.151-162.909 151.273l0 488.727c0 91.33 74.637 174.545 162.909 174.545l349.091 0 0-46.545-349.091 0zM628.364 186.545c0-22.864 15.695-34.909 46.545-34.909l279.273 0c67.03 0 116.364 43.663 116.364 104.727l0 488.727c0 66.684-54.995 128-116.364 128l-349.091 0 0 46.545 349.091 0c88.272 0 162.909-83.216 162.909-174.545l0-488.727c0-88.122-71.352-151.273-162.909-151.273l-279.273 0c-54.271 0-93.091 29.792-93.091 81.455l0 360.727 46.545 0 0-360.727z" /></svg>